# xmcd CD database file
#
# Track frame offsets:
#	150
#	6185
#	21958
#	33844
#	46998
#	80015
#	92807
#	107830
#	123981
#	136064
#
# Disc length: 2087 seconds
#
# Revision: 4
# Processed by: cddbd v1.5.1PL2 Copyright (c) Steve Scherf et al.
# Submitted via: CDex 1.51
#
DISCID=7708250a
DTITLE=Dan Fogelberg and Tim Weisberg - Twin Sons of Different Mothers
DYEAR=1978
DGENRE=Rock
TTITLE0=Twins Theme
TTITLE1=Intimidation
TTITLE2=Lazy Susan
TTITLE3=Guitar Etude No.3
TTITLE4=Tell Me to My Face
TTITLE5=Hurtwood Alley
TTITLE6=Lahaina Luna
TTITLE7=Paris Nocturne
TTITLE8=Since You've Asked
TTITLE9=The Power of Gold
EXTD=YEAR: 1978
EXTT0=
EXTT1=
EXTT2=
EXTT3=
EXTT4=
EXTT5=
EXTT6=
EXTT7=
EXTT8=
EXTT9=
PLAYORDER=
